<svg xmlns="http://www.w3.org/2000/svg" version="1.1" xmlns:xlink="http://www.w3.org/1999/xlink" xmlns:svgjs="http://svgjs.dev/svgjs" width="1000" height="760" viewBox="0 0 1000 760"><g transform="matrix(1,0,0,1,0.31533001861748744,0.30769230769226397)"><svg viewBox="0 0 325 247" data-background-color="#ffffff" preserveAspectRatio="xMidYMid meet" height="760" width="1000" xmlns="http://www.w3.org/2000/svg" xmlns:xlink="http://www.w3.org/1999/xlink"><g id="tight-bounds" transform="matrix(1,0,0,1,-0.10248202026710374,-0.09999999999999432)"><svg viewBox="0 0 325.20495373342334 247.2" height="247.2" width="325.20495373342334"><g><svg viewBox="0 0 395.52 300.6489995848772" height="247.2" width="325.20495373342334"><g transform="matrix(1,0,0,1,0,223.2543926645537)"><svg viewBox="0 0 395.52 77.39460692032347" height="77.39460692032347" width="395.52"><g><svg viewBox="0 0 395.52 77.39460692032347" height="77.39460692032347" width="395.52"><g><svg viewBox="0 0 395.52 77.39460692032347" height="77.39460692032347" width="395.52"><g transform="matrix(1,0,0,1,0,0)"><svg width="395.52" viewBox="3.6100001335144043 -35.54999923706055 184.14999389648438 36.040000915527344" height="77.39460692032347" data-palette-color="#ba3b0a"><path d="M16.58 0L3.61 0 3.61-35.55 15.8-35.55Q21.83-35.55 24.98-33.13 28.13-30.71 28.13-25.93L28.13-25.93Q28.13-23.49 26.81-21.53 25.49-19.58 22.95-18.51L22.95-18.51Q25.83-17.72 27.4-15.56 28.98-13.4 28.98-10.38L28.98-10.38Q28.98-5.37 25.77-2.69 22.56 0 16.58 0L16.58 0ZM17.16-16.04L9.79-16.04 9.79-4.93 16.65-4.93Q19.56-4.93 21.19-6.37 22.83-7.81 22.83-10.38L22.83-10.38Q22.83-15.92 17.16-16.04L17.16-16.04ZM9.79-30.57L9.79-20.58 15.84-20.58Q18.73-20.58 20.35-21.89 21.97-23.19 21.97-25.59L21.97-25.59Q21.97-28.22 20.47-29.39 18.97-30.57 15.8-30.57L15.8-30.57 9.79-30.57ZM55-35.55L61.15-35.55 61.15-11.79Q61.15-6.13 57.53-2.82 53.9 0.49 47.87 0.49L47.87 0.49Q41.77 0.49 38.18-2.77 34.59-6.03 34.59-11.82L34.59-11.82 34.59-35.55 40.74-35.55 40.74-11.77Q40.74-8.2 42.55-6.32 44.36-4.44 47.87-4.44L47.87-4.44Q55-4.44 55-11.96L55-11.96 55-35.55ZM71.33-35.55L80.27-7.74 89.3-35.55 96.09-35.55 83.3 0 77.31 0 64.57-35.55 71.33-35.55ZM120.87-20.75L120.87-15.87 106.27-15.87 106.27-4.93 123.33-4.93 123.33 0 100.09 0 100.09-35.55 123.16-35.55 123.16-30.57 106.27-30.57 106.27-20.75 120.87-20.75ZM148.21-35.55L154.36-35.55 154.36-11.79Q154.36-6.13 150.73-2.82 147.11 0.49 141.08 0.49L141.08 0.49Q134.98 0.49 131.39-2.77 127.8-6.03 127.8-11.82L127.8-11.82 127.8-35.55 133.95-35.55 133.95-11.77Q133.95-8.2 135.76-6.32 137.56-4.44 141.08-4.44L141.08-4.44Q148.21-4.44 148.21-11.96L148.21-11.96 148.21-35.55ZM181.14 0L174.01-13.7 167.13-13.7 167.13 0 160.95 0 160.95-35.55 173.45-35.55Q179.6-35.55 182.95-32.79 186.29-30.03 186.29-24.8L186.29-24.8Q186.29-21.24 184.57-18.84 182.85-16.43 179.77-15.14L179.77-15.14 187.76-0.32 187.76 0 181.14 0ZM167.13-30.57L167.13-18.65 173.47-18.65Q176.6-18.65 178.36-20.23 180.11-21.8 180.11-24.54L180.11-24.54Q180.11-27.39 178.49-28.96 176.87-30.52 173.64-30.57L173.64-30.57 167.13-30.57Z" opacity="1" transform="matrix(1,0,0,1,0,0)" fill="#ba3b0a" class="undefined-text-0" data-fill-palette-color="primary" id="text-0"></path></svg></g></svg></g></svg></g></svg></g><g transform="matrix(1,0,0,1,104.40381289104542,0)"><svg viewBox="0 0 186.71237421790914 186.71237421790914" height="186.71237421790914" width="186.71237421790914"><g><svg></svg></g><g id="icon-0"><svg viewBox="0 0 186.71237421790914 186.71237421790914" height="186.71237421790914" width="186.71237421790914"><g><path d="M0 93.356c0-51.559 41.797-93.356 93.356-93.356 51.559 0 93.356 41.797 93.356 93.356 0 51.559-41.797 93.356-93.356 93.356-51.559 0-93.356-41.797-93.356-93.356zM93.356 179.733c47.705 0 86.377-38.672 86.377-86.377 0-47.705-38.672-86.377-86.377-86.376-47.705 0-86.377 38.672-86.376 86.376 0 47.705 38.672 86.377 86.376 86.377z" data-fill-palette-color="accent" fill="#ba3b0a" stroke="transparent"></path></g><g transform="matrix(1,0,0,1,57.94172703333243,40.920617575021616)"><svg viewBox="0 0 70.82892015124429 104.87113906786591" height="104.87113906786591" width="70.82892015124429"><g><svg xmlns="http://www.w3.org/2000/svg" xmlns:xlink="http://www.w3.org/1999/xlink" version="1.1" x="0" y="0" viewBox="15.989999771118164 0 67.53900146484375 100" enable-background="new 0 0 100 100" xml:space="preserve" height="104.87113906786591" width="70.82892015124429" class="icon-s-0" data-fill-palette-color="accent" id="s-0"><path d="M82.92 4.82L83.529 0 64 1.83l-6.311 18.53H15.99L26.07 100h34.151L70.34 20.36l-7.619-0.02 4.92-14.12L82.92 4.82zM26.61 70.38l-6.49-45.27 36.06 0.05L43.3 65.98C34.96 65.63 26.61 70.38 26.61 70.38zM65.54 25.18c0 0-4.46 37.839-5.979 39.87-1.49 2.011-2.181 4.58-11.25 1.83l12.92-41.71L65.54 25.18z" fill="#ba3b0a" data-fill-palette-color="accent"></path></svg></g></svg></g></svg></g></svg></g><g></g></svg></g><defs></defs></svg><rect width="325.20495373342334" height="247.2" fill="none" stroke="none" visibility="hidden"></rect></g></svg></g></svg>